<?xml version="1.0" encoding="utf-8"?>
<!-- Generator: Adobe Illustrator 16.0.0, SVG Export Plug-In . SVG Version: 6.00 Build 0)  -->
<!DOCTYPE svg PUBLIC "-//W3C//DTD SVG 1.1//EN" "http://www.w3.org/Graphics/SVG/1.1/DTD/svg11.dtd">
<svg version="1.1" id="Layer_1" xmlns="http://www.w3.org/2000/svg" xmlns:xlink="http://www.w3.org/1999/xlink" x="0px" y="0px"
	 width="62.5px" height="93.5px" viewBox="0 0 62.5 93.5" enable-background="new 0 0 62.5 93.5" xml:space="preserve">
<pattern  x="-269.75" y="-28.75" width="8" height="4.5" patternUnits="userSpaceOnUse" id="New_Pattern_7" viewBox="1 -5.5 8 4.5" overflow="visible">
	<g>
		<polygon fill="none" points="1,-5.5 9,-5.5 9,-1 1,-1 		"/>
		<path fill="#36A9E1" d="M10-1c0,0.552-0.448,1-1,1S8-0.448,8-1s0.448-1,1-1S10-1.552,10-1z"/>
		<path fill="#36A9E1" d="M2-1c0,0.552-0.448,1-1,1S0-0.448,0-1s0.448-1,1-1S2-1.552,2-1z"/>
		<path fill="#36A9E1" d="M10-5.5c0,0.552-0.448,1-1,1s-1-0.448-1-1s0.448-1,1-1S10-6.052,10-5.5z"/>
		<path fill="#36A9E1" d="M6-3.25c0,0.552-0.448,1-1,1s-1-0.448-1-1s0.448-1,1-1S6-3.802,6-3.25z"/>
		<path fill="#36A9E1" d="M2-5.5c0,0.552-0.448,1-1,1s-1-0.448-1-1s0.448-1,1-1S2-6.052,2-5.5z"/>
	</g>
</pattern>
<path fill="url(#New_Pattern_7)" d="M30.25,90.25l-7,3l-1-4l-3,1v-4l19-19l1,3l-7,9l2,9L30.25,90.25z M3.25,59.25l1-3l-4-5l2-3l-2-7
	l8-9v-5l6-2v-5l-7-17l9-3l17,2l-1,4l3,5l6-2v2v7l-6-1v6l7,5l5-1l2,6l9,2l-1,6h-2l1,5l6,2l-3,1l2,11l-3,2l-5-1l-13,5l-15-9h-14l-1-3
	l-2,5l-3-2L3.25,59.25z"/>
<circle fill="#36A9E1" cx="-10.375" cy="-34.802" r="1"/>
</svg>
